<?xml version="1.0" encoding="utf-8"?>
<!-- Generator: Adobe Illustrator 21.1.0, SVG Export Plug-In . SVG Version: 6.00 Build 0)  -->
<svg version="1.1" id="Layer_1" xmlns="http://www.w3.org/2000/svg" xmlns:xlink="http://www.w3.org/1999/xlink" x="0px" y="0px"
	 viewBox="0 0 767 741" style="enable-background:new 0 0 767 741;" xml:space="preserve">
<style type="text/css">
	.st0{opacity:0.61;fill:#D1CEDB;}
	.st1{fill:#EBEBE1;}
	.st2{fill:#DE975D;}
	.st3{fill:#B1ACB7;}
	.st4{fill:#415B7F;}
	.st5{fill:#FEFEFE;}
	.st6{fill:#F4CE86;}
	.st7{fill:#B588A1;}
	.st8{fill:#6E5C9B;}
	.st9{fill:#D1CEDB;}
	.st10{fill:#B97F51;}
	.st11{fill:#B98051;}
</style>
<path class="st0" d="M391.7,718c-5.5,0-11.1,0-16.6,0c-2.2-0.4-4.4-0.1-6.6-0.2c-17.9,0.2-35.6-2.1-53.2-5.4
	c-21.8-4.1-43-10.4-63.6-18.7c-27.2-11-52.7-25.1-76.3-42.6c-11.5-8.5-22.5-17.8-32.9-27.6c-24.9-23.5-45.7-50.2-62.7-79.9
	c-16.3-28.5-28.2-58.7-35.8-90.6c-2.7-11.4-4.9-22.9-6.4-34.5c-0.3-2.4-0.4-4.9-0.4-7.4c0-25.8,0-51.6,0-77.4
	c0-7.9,1.5-15.7,2.9-23.4c3.1-17.4,7.6-34.4,13.4-51.1c5.7-16.6,12.7-32.6,20.9-48.1c8.8-16.7,18.9-32.6,30.3-47.6
	c7.5-9.9,15.5-19.3,24-28.3c17.6-18.9,37.3-35.4,58.7-50c10.2-6.9,20.8-13.2,31.7-19c17.3-9.2,35.4-16.8,54-22.9
	c20-6.6,40.4-11.2,61.2-14c8.8-1.2,17.7-2.1,26.6-2.4c10-0.3,20-0.3,30-0.3c14.8,0.1,29.5,1.4,44.2,3.7c15.9,2.6,31.6,6.1,46.9,10.8
	c15.3,4.7,30.2,10.3,44.7,17.1c9.8,4.6,19.4,9.6,28.8,15.1c18.3,10.7,35.5,23,51.5,36.8c9.8,8.4,18.9,17.5,27.8,26.9
	c13.2,14.1,25.1,29.3,35.7,45.5c9.9,15,18.5,30.7,25.9,47c7.2,15.8,13.1,32.1,17.8,48.8c5,17.8,8.5,36,10.7,54.4
	c1.2,10.3,1.7,20.6,1.8,31c0,4.4,0.1,8.9,0.1,13.3c0.1,24.9-3,49.5-8.6,73.8c-5.3,22.8-12.8,44.7-22.5,65.9
	c-9.6,20.9-21.2,40.6-34.7,59.2c-8.1,11-16.7,21.6-26,31.6c-11.4,12.2-23.5,23.7-36.6,34.2c-14.4,11.6-29.6,22-45.6,31.2
	c-17.6,10.1-36,18.6-55.2,25.4c-22.4,8-45.4,13.7-69,16.9c-9.2,1.3-18.5,2.3-27.8,2.4C397.7,717.8,394.7,717.5,391.7,718z"/>
<path class="st1" d="M368.2,718c0-0.1,0-0.2,0-0.3c2.3,0.1,4.6-0.4,6.9,0.3C372.8,718,370.5,718,368.2,718z"/>
<path class="st2" d="M154.2,329.8c-3.1-9-1.5-17.7,1.2-26.4c6.9-22.3,16.6-43.2,29.5-62.6c8.1-12.1,17.3-23.4,27.5-33.8
	c20.3-20.7,43.7-37,69.9-49.4c17.9-8.5,36.7-14.6,56.1-18.5c8.7-1.8,17.6-2.9,26.5-3.7c10.1-0.9,20.1-0.9,30.2-0.5
	c10.8,0.4,21.5,1.7,32.2,3.7c20.9,3.8,40.9,10.3,60.1,19.5c16.9,8.1,32.6,18,47.1,29.9c21.6,17.8,39.6,38.7,53.7,62.8
	c11.6,19.9,20.2,41,25.6,63.3c2.8,11.4,4.6,22.9,5.8,34.5c1.2,12.2,1,24.5,0.9,36.7c-0.3,3.4-0.3,6.9-0.4,10.3
	c-0.3,6.6-1.3,13.2-2.5,19.7c-3.5,20.1-9.5,39.4-18,57.9c-8.5,18.4-19.2,35.3-32.2,50.8c-15.8,18.8-34.1,34.8-54.8,47.9
	c-18.5,11.7-38.3,20.9-59.2,27.5c-16.1,5.1-32.6,8.6-49.4,10.6c-11,1.3-22,2-33.1,1.7c-10.4-0.4-20.7-1.6-30.9-3.5
	c-19.6-3.7-38.6-9.6-56.8-17.7c-19.9-8.9-38.6-19.8-55.2-34.2c-8.6-7.5-16.4-15.8-22.1-25.9c-1.9-3.3-3.9-6.6-4-10.5
	c-2.4-7.8-1.3-15.5,0.2-23.2c2.1-10.8,5.6-21.2,8.4-31.9c2.6-10.1,4.7-20.3,5.4-30.7c0.1-1.6,0.3-3.2,0.3-4.8
	c-0.2-3.4,0-6.9-0.2-10.3c-0.6-9-0.5-18-2.5-26.9c-2.8-12.8-9.6-22.9-19.9-30.8c-5.1-3.9-10.6-7.1-16.2-10.3
	c-4.1-2.4-8.2-4.7-12-7.5c-3.9-2.8-7.3-6.1-9.9-10.2C154.7,332.3,154.1,331.1,154.2,329.8z"/>
<path class="st3" d="M201.9,519.9c4.3,12.8,12.7,22.9,22.3,32c10.7,10.2,22.8,18.6,35.6,26c15.8,9.1,32.4,16.4,49.8,22
	c13,4.2,26.2,7.3,39.8,9.2c12,1.7,24.2,2.5,36.3,1.9c11.9-0.6,23.8-2,35.6-4.2c13.5-2.5,26.8-6,39.8-10.6c8.5-3,16.8-6.4,24.9-10.2
	c15.9-7.6,30.9-16.7,44.8-27.5c10.5-8.1,20.2-17.1,29.2-26.8c11-11.9,20.6-24.9,28.8-38.9c6.8-11.5,12.5-23.6,17.2-36.1
	c4.7-12.7,8.3-25.6,10.7-38.9c1.3-7.2,2.4-14.4,3-21.7c0.3-3.6,0.6-7.2,1-10.8c0,6.8,0.3,13.6,0,20.4c-0.8,16.1-3,32.1-7,47.8
	c-3.5,13.7-8,27-13.9,39.9c-7.4,16.3-16.6,31.5-27.6,45.7c-4.4,5.7-9.2,11-14,16.3c-4,4.3-8.2,8.4-12.5,12.4
	c-7.6,7-15.6,13.4-24.1,19.2c-9.7,6.7-19.7,12.7-30.2,18c-10.1,5.1-20.5,9.5-31.1,13.1c-12.5,4.3-25.2,7.7-38.1,10.1
	c-7.7,1.4-15.4,2.6-23.2,3.3c-7.7,0.7-15.5,1.5-23.2,1.3c-7.2-0.2-14.4-0.7-21.6-1.5c-17.1-2.1-33.7-6.1-49.9-11.7
	c-15.4-5.3-30.1-12-44.2-20.2c-9-5.2-17.6-10.9-25.7-17.4c-9.5-7.6-18.2-16-25-26.2c-4-6-7.2-12.3-8.2-19.6c-0.6-4-0.3-7.9,0.3-11.8
	C201.3,523,201.3,521.4,201.9,519.9z"/>
<path class="st3" d="M154.2,329.8c3.5,7.9,10.1,12.8,17.2,17.1c7.6,4.6,15.5,8.6,22.5,14c11.7,8.9,18.5,20.6,20.8,35.1
	c0.9,6,1.2,12.1,1.5,18.2c0.2,5.1,0.3,10.1-0.1,15.1c-0.6-1.9-0.4-4-0.6-6c-1-11.3-4.2-21.6-11.1-30.7c-4.5-5.8-10.1-10.4-16.2-14.3
	c-7.3-4.7-15.1-8.5-22.3-13.5c-5.4-3.8-9.9-8.3-12-14.7C151.7,343.3,152.2,336.6,154.2,329.8z"/>
<path class="st4" d="M462.2,283.4c-0.8-4.1-1.6-8.2-1.4-12.5c0.9-17.7,9.3-30.8,25.3-38.4c17-8,36.4-4,49.3,9.6
	c6.7,7,10.4,15.4,11.5,25.1c0.6,5.5-0.1,10.8-1.2,16.1c0.2,1.6-0.4,3-0.9,4.3c-6.9,16.2-19.1,25.7-36.6,27.6
	c-12.5,1.4-23.8-2.4-33.3-10.8c-5.6-5-9.7-11-12.2-18.1C462.4,285.5,462.1,284.5,462.2,283.4z"/>
<path class="st5" d="M494.7,419.3c-2.3-9.6-2.1-19,2-28.1c6.9-15.5,18.9-24.6,35.9-26.2c23.3-2.3,43.8,14.3,46.8,37.5
	c0.8,5.8,0.2,11.5-1.3,17.1c0.4,0.9,0.1,1.7-0.2,2.5c-3.8,10.7-10.7,18.8-20.6,24.3c-7.3,4-15.2,5.8-23.5,5.2
	c-10-0.7-18.8-4.3-26.3-10.9c-5.3-4.7-9.3-10.4-11.9-16.9C494.9,422.4,494.5,420.9,494.7,419.3z"/>
<path class="st6" d="M341.2,228.2c-0.8-4-1.6-8-1.4-12.1c0.5-13.3,5.7-24.2,15.9-32.7c8.6-7.2,18.7-10.4,29.8-9.7
	c12.5,0.7,22.8,6.1,30.9,15.7c5.2,6.2,8.2,13.3,9.4,21.2c0.8,5.3,0.5,10.6-0.6,15.9c-0.1,0.6-0.2,1.1-0.3,1.7
	c0.1,1.2-0.1,2.3-0.5,3.4c-6.6,16.6-18.7,26.4-36.4,28.7c-19.6,2.6-39.2-9.3-46.3-28.9C341.3,230.3,341.2,229.3,341.2,228.2z"/>
<path class="st7" d="M219.2,286.3c-3-12.1-1.4-23.6,5.2-34.1c6.6-10.5,16.1-17.1,28.3-19.4c13.4-2.5,25.5,0.6,36,9.3
	c8.5,7.1,13.5,16.3,15.1,27.3c0.8,5.3,0.5,10.5-0.9,15.7c-0.1,0.4-0.1,0.8-0.1,1.2c0,2.5-0.9,4.7-1.9,6.9c-7.4,15-19.3,23.8-36,25.6
	c-19.6,2.1-38.5-10-45.3-29C219.2,288.5,219.1,287.4,219.2,286.3z"/>
<path class="st8" d="M396.2,524.7c-0.4-2.7-1-5.4-1.2-8.2c-1.4-20.9,12.7-40.1,33.5-44.9c24.3-5.5,48.2,10.6,52.3,35.2
	c1,5.9,0.6,11.7-0.7,17.5c-0.2,4.2-2,7.9-4.1,11.4c-7.5,12.6-18.6,20-33.2,21.6c-13.3,1.5-25.1-2.6-35-11.8c-4-3.7-7-8.1-9.4-12.9
	C397.3,530.1,396.2,527.6,396.2,524.7z"/>
<path class="st9" d="M338.4,490.6c-0.8,4.6-2.7,8.8-5.3,12.7c-7.5,11.6-18.2,18.6-31.9,20c-15.4,1.6-28.2-3.9-38.2-15.8
	c-3.6-4.3-6.1-9.2-7.8-14.5c-0.2-0.8-0.6-1.5-0.5-2.3c0-1.3,0.2-2.5,0.7-3.7c6.7-16.3,18.7-26.3,36.3-28.3
	c17.1-1.9,30.7,4.8,40.8,18.6c2.2,2.9,3.7,6.2,5.1,9.6C338.2,487.9,338.5,489.2,338.4,490.6z"/>
<path class="st10" d="M396.2,524.7c1.6,5.3,3.8,10.3,7.1,14.7c7.3,9.7,16.9,15.6,29,17.2c14.6,1.9,27.1-2.7,37.3-13.2
	c4.9-5.1,8.2-11.2,10.1-18c0.1-0.3,0.2-0.6,0.3-1c0.5,3.8,1.2,7.6,1.1,11.5c-0.1,8.1-2.1,15.6-6.5,22.4c-7.2,11.3-17.5,18.2-30.8,20
	c-12.7,1.8-24.1-1.7-34-10c-7.8-6.6-12.5-15.1-14.4-25C394.4,537,394.7,530.8,396.2,524.7z"/>
<path class="st11" d="M462.2,283.4c1.6,4.8,3.6,9.4,6.6,13.6c7.4,10,17.1,16,29.5,17.6c14.1,1.8,26.2-2.5,36.4-12.4
	c4.9-4.8,8.3-10.5,10.4-17.1c0.2-0.6,0.4-1.2,0.7-1.8c1.2,2.4,1.3,5.1,1.4,7.7c0.5,13.2-3.9,24.5-13.5,33.7
	c-7.1,6.8-15.7,10.7-25.6,11.6c-11.3,1.1-21.4-1.9-30.4-8.7c-8.9-6.8-14.3-15.8-16.3-26.9c-0.9-5.1-0.8-10.2,0.1-15.2
	C461.7,284.8,461.7,284,462.2,283.4z"/>
<path class="st11" d="M341.2,228.2c1.7,5.1,3.8,10,7.1,14.3c7.6,9.9,17.5,15.9,29.9,17.2c14.4,1.6,26.6-3.2,36.6-13.6
	c4.7-4.9,7.8-10.7,9.7-17.1c0.1-0.3,0.2-0.5,0.3-0.8c1.4,4.2,1.6,8.6,1.4,12.9c-0.4,6-1.9,11.8-4.8,17.2
	c-6.8,12.6-17.3,20.4-31.3,22.7c-13,2.2-24.9-1.1-35.1-9.7c-8.3-7-13.1-15.9-14.7-26.5C339.4,239.2,339.4,233.6,341.2,228.2z"/>
<path class="st3" d="M338.4,490.6c-1.6-4.6-3.5-9.1-6.3-13.1c-7.6-10.6-17.8-16.8-30.9-18.4c-11.4-1.3-21.7,1.7-30.8,8.5
	c-7.5,5.6-12.5,13.1-15.3,22c-0.1,0.3-0.3,0.6-0.4,0.9c-1.4-4.2-1.6-8.6-1.3-12.9c0.4-6,1.9-11.8,4.8-17.1
	c7.1-12.8,17.8-20.8,32.4-22.8c12.3-1.7,23.5,1.3,33.1,9.2c9.1,7.4,14.4,17.1,15.8,28.9c0.5,4.8,0.2,9.4-0.8,14
	C338.7,490.1,338.6,490.3,338.4,490.6z"/>
<path class="st11" d="M494.7,419.3c2,6.7,5.2,12.7,10,17.9c22.4,24.4,62.8,15.4,73-16.3c0.1-0.4,0.3-0.9,0.4-1.3
	c1.3,1.3,1,3.1,1.3,4.6c0.9,6,0.2,11.9-1.5,17.7c-1.9,6.3-5.1,11.9-9.6,16.8c-5.3,5.7-11.6,9.8-19,12c-9.8,3.1-19.6,2.7-29.1-1.3
	c-13.9-5.9-22.5-16.3-25.9-31c-1.4-6.1-1.4-12.3,0.1-18.4C494.4,419.9,494.5,419.6,494.7,419.3z"/>
<path class="st11" d="M219.2,286.3c1.8,6.1,4.6,11.6,8.7,16.5c5,6,11.1,10.3,18.4,13c5.1,1.9,10.3,2.9,15.7,2.6
	c10.1-0.4,19.2-3.7,27-10.4c6.8-5.8,11.3-12.9,13.7-21.5c0-0.1,0.1-0.2,0.2-0.3c3,12,1.1,23.2-5.4,33.5
	c-6.9,10.9-16.8,17.4-29.4,19.5c-10.7,1.8-20.8-0.3-30.1-6.1c-10.3-6.6-16.7-16-19.3-27.9C217.3,299,217.3,292.6,219.2,286.3z"/>
</svg>
