<?xml version="1.0" ?><!DOCTYPE svg  PUBLIC '-//W3C//DTD SVG 1.1//EN'  'http://www.w3.org/Graphics/SVG/1.1/DTD/svg11.dtd'><svg height="2048px" style="shape-rendering:geometricPrecision; text-rendering:geometricPrecision; image-rendering:optimizeQuality; fill-rule:evenodd; clip-rule:evenodd" viewBox="0 0 2048 2048" width="2048px" xml:space="preserve" xmlns="http://www.w3.org/2000/svg" xmlns:xlink="http://www.w3.org/1999/xlink"><defs><style type="text/css">
   <![CDATA[
    .fil1 {fill:none}
    .fil0 {fill:#424242}
   ]]>
  </style></defs><g id="Layer_x0020_1"><path class="fil0" d="M1776 1760l0 -1472 0 -16.0004 -16.0004 0 -1472 0 -16.0004 0 0 16.0004 0 1472 0 16.0004 16.0004 0 1472 0 16.0004 0 0 -16.0004zm-1047.59 -1160.17l0 0zm-109.395 -82.2284l755.898 0 15.1665 0.0011811 0.77126 15.2492 10.8614 214.771 0.846851 16.7504 -16.7847 0 -28.389 0 -13.1504 0 -2.53701 -12.9378c-4.93347,-25.1528 -10.0984,-46.2957 -15.5173,-63.4524 -5.17559,-16.3878 -10.4374,-28.761 -15.8067,-37.1362 -5.27835,-8.23465 -11.7484,-15.5032 -19.4587,-21.7701 -7.84607,-6.37796 -17.0917,-11.8205 -27.7855,-16.2933l0.00708662 -0.0153543c-8.32442,-3.00591 -20.237,-5.34685 -35.7118,-6.99449 -16.1894,-1.72441 -36.2398,-2.60197 -60.1252,-2.60197l-253.081 0 0 355.576 199.512 0c26.9847,0 49.1469,-1.95354 66.5174,-5.85709 15.9898,-3.59528 27.6284,-8.66221 34.9335,-15.1984l0.0625985 -0.0625985c10.4858,-9.25276 18.7429,-22.3748 24.815,-39.3851 6.47599,-18.137 10.3831,-40.3807 11.7768,-66.7501l0.801969 -15.1878 15.1358 0 26.661 0 16.0004 0 0 16.0004 0 341.413 0 16.0004 -16.0004 0 -26.661 0 -13.8803 0 -1.93228 -13.813c-3.26693,-23.3504 -6.53859,-42.3248 -9.76064,-56.9386l-0.0625985 0c-3.13583,-14.2288 -6.0756,-24.1488 -8.77324,-29.7815l-0.0212599 0.0106299c-3.47008,-6.74056 -8.10709,-12.8126 -13.8791,-18.1854 -5.92678,-5.51457 -13.1492,-10.3559 -21.6414,-14.4957 -8.57599,-4.18111 -19.6547,-7.37127 -33.228,-9.54095 -14.1106,-2.25709 -31.0642,-3.39922 -50.8642,-3.39922l-199.512 0 0 307.392c0,21.5492 0.472441,38.6374 1.3878,51.2729 0.833859,11.5205 1.89567,18.8823 3.16418,22.0949l-0.046063 0.0177165c1.23543,2.83583 2.91024,5.42953 5.03859,7.79056 2.27008,2.51929 5.09764,4.7752 8.5004,6.78071l-0.0212599 0.0354331c3.04134,1.62165 8.12953,2.95866 15.2138,4.0063 8.35512,1.23543 18.9543,1.85551 31.7339,1.85551l166.386 0c27.5292,0 50.9859,-0.885827 70.2449,-2.71418 18.8823,-1.79291 34.1339,-4.48819 45.6591,-8.13898l0.187795 0c11.1827,-3.39685 22.1764,-8.49568 33.0307,-15.3142 11.0374,-6.93426 21.9024,-15.6414 32.6422,-26.1414l-0.0295276 -0.0295276c14.3882,-14.3882 28.8862,-32.3599 43.487,-53.8784 14.7685,-21.7654 29.928,-47.5996 45.4713,-77.465l4.48819 -8.6256 9.69922 0 28.8827 0 22.3996 0 -7.27442 21.1878 -84.4264 245.876 -3.71339 10.813 -11.4118 0 -755.898 0 -16.0004 0 0 -16.0004 0 -26.661 0 -16.0004 16.0004 0 34.8083 0c10.1268,0 20.0173,-1.2437 29.6421,-3.70512 9.86221,-2.52047 19.3807,-6.24567 28.5236,-11.1437l0.437008 -0.250394c5.94095,-2.92205 10.8437,-6.54804 14.7532,-10.8484 3.81024,-4.19174 6.76654,-9.19016 8.90788,-14.9634l0.0401575 0.0153543c2.19095,-6.44056 3.90355,-16.8189 5.13307,-31.1268 1.31457,-15.313 1.97362,-34.6878 1.97362,-58.1209l0 -637.156c0,-30.4229 -1.46102,-54.691 -4.40906,-72.8221 -2.63504,-16.2 -6.10158,-26.7874 -10.4055,-31.787 -6.73938,-7.42914 -15.9295,-13.0866 -27.5693,-16.9665 -12.6898,-4.22835 -28.3666,-6.34489 -47.0268,-6.34489l-34.8083 0 -16.0004 0 0 -16.0004 0 -26.9079 0 -16.0004 16.0004 0z"/></g><rect class="fil1" height="2048" width="2048"/></svg>